<svg width="64" height="64" viewBox="0 0 64 64" fill="none" xmlns="http://www.w3.org/2000/svg">
<path d="M29.3507 56.0003H25.6146C16.0539 56.0003 11.2736 56.0003 8.30345 52.9739C5.33334 49.9472 5.33334 45.076 5.33334 35.3336C5.33334 25.5913 5.33334 20.7201 8.30345 17.6936C11.2736 14.667 16.0539 14.667 25.6146 14.667H35.7552C45.3157 14.667 50.0963 14.667 53.0664 17.6936C55.3515 20.0222 55.8784 23.4427 56 29.3336" stroke="#4DBB02" stroke-width="2.5" stroke-linecap="round"/>
<path d="M53.3779 53.3956L58.6661 58.6668M56.1408 46.7375C56.1408 41.5439 51.9304 37.3335 46.7368 37.3335C41.5429 37.3335 37.3328 41.5439 37.3328 46.7375C37.3328 51.9314 41.5429 56.1418 46.7368 56.1418C51.9304 56.1418 56.1408 51.9314 56.1408 46.7375Z" stroke="#4DBB02" stroke-width="2.5" stroke-linecap="round" stroke-linejoin="round"/>
<path d="M42.6661 14.6668L42.4011 13.8427C41.0811 9.73587 40.4211 7.68248 38.8496 6.50798C37.2784 5.3335 35.1912 5.3335 31.0168 5.3335H30.3152C26.1408 5.3335 24.0536 5.3335 22.4823 6.50798C20.911 7.68248 20.2509 9.73587 18.9309 13.8427L18.666 14.6668" stroke="#4DBB02" stroke-width="2.5"/>
</svg>
