<svg width="64" height="64" viewBox="0 0 64 64" fill="none" xmlns="http://www.w3.org/2000/svg">
<path d="M42.6667 37.3335C42.6667 39.5426 44.4576 41.3335 46.6667 41.3335C48.8758 41.3335 50.6667 39.5426 50.6667 37.3335C50.6667 35.1244 48.8758 33.3335 46.6667 33.3335C44.4576 33.3335 42.6667 35.1244 42.6667 37.3335Z" stroke="#4DBB02" stroke-width="2.5"/>
<path d="M10.6666 53.3332C7.72113 53.3332 5.33331 50.9454 5.33331 47.9998C5.33331 45.0542 7.72113 42.6665 10.6666 42.6665C13.6122 42.6665 16 46.222 16 47.9998C16 49.7777 13.6122 53.3332 10.6666 53.3332Z" stroke="#4DBB02" stroke-width="2.5"/>
<path d="M21.3333 53.3332C18.3878 53.3332 16 49.3332 16 47.9998C16 46.6665 18.3878 42.6665 21.3333 42.6665C24.2789 42.6665 26.6667 45.0542 26.6667 47.9998C26.6667 50.9454 24.2789 53.3332 21.3333 53.3332Z" stroke="#4DBB02" stroke-width="2.5"/>
<path d="M34.6666 53.3332H42.6666C50.209 53.3332 53.9802 53.3332 56.3234 50.99C58.6666 48.6468 58.6666 44.8756 58.6666 37.3332V34.6665C58.6666 27.1241 58.6666 23.3528 56.3234 21.0097C54.6133 19.2995 52.1424 18.8375 48 18.7127M48 18.7127C46.4666 18.6665 44.7042 18.6665 42.6666 18.6665H26.6666M48 18.7127C48 16.1843 48 14.9201 47.58 13.9254C47.0397 12.6454 46.021 11.6269 44.741 11.0865C43.7464 10.6665 42.4821 10.6665 39.9538 10.6665H26.6666C16.61 10.6665 11.5817 10.6665 8.4575 13.7907C5.33331 16.9149 5.33331 19.2765 5.33331 29.3332V34.6665" stroke="#4DBB02" stroke-width="2.5" stroke-linecap="round"/>
</svg>
