<svg width="64" height="64" viewBox="0 0 64 64" fill="none" xmlns="http://www.w3.org/2000/svg">
<path d="M16 47.932C16.3432 51.4211 17.1188 53.7696 18.8718 55.5224C22.0159 58.6667 27.0763 58.6667 37.1971 58.6667C47.3179 58.6667 52.3784 58.6667 55.5224 55.5224C58.6667 52.3784 58.6667 47.3179 58.6667 37.1971C58.6667 27.0763 58.6667 22.0159 55.5224 18.8718C53.7696 17.1188 51.4211 16.3432 47.932 16" stroke="#4DBB02" stroke-width="2.5"/>
<path d="M5.33337 26.6668C5.33337 16.6102 5.33337 11.5819 8.45756 8.45768C11.5818 5.3335 16.6101 5.3335 26.6667 5.3335C36.7232 5.3335 41.7518 5.3335 44.8758 8.45768C48 11.5819 48 16.6102 48 26.6668C48 36.7234 48 41.7519 44.8758 44.8759C41.7518 48.0002 36.7232 48.0002 26.6667 48.0002C16.6101 48.0002 11.5818 48.0002 8.45756 44.8759C5.33337 41.7519 5.33337 36.7234 5.33337 26.6668Z" stroke="#4DBB02" stroke-width="2.5"/>
<path d="M5.33337 29.6491C6.98409 29.4392 8.65295 29.3358 10.3246 29.3392C17.3964 29.2086 24.2951 31.1366 29.7896 34.7795C34.8854 38.1582 38.4659 42.8078 40 47.9998" stroke="#4DBB02" stroke-width="2.5" stroke-linejoin="round"/>
<path d="M34.6661 18.6665H34.6901" stroke="#4DBB02" stroke-width="4" stroke-linecap="round" stroke-linejoin="round"/>
</svg>
