<svg width="64" height="64" viewBox="0 0 64 64" fill="none" xmlns="http://www.w3.org/2000/svg">
<path d="M8.0001 29.2988V41.3132C8.0001 48.8647 8.0001 52.6407 10.3432 54.9866C12.6864 57.3327 16.4576 57.3327 24.0001 57.3327H40C47.5424 57.3327 51.3136 57.3327 53.6568 54.9866C56 52.6407 56 48.8647 56 41.3132V29.2988" stroke="#4DBB02" stroke-width="2.5"/>
<path d="M40 45.2715C38.1757 46.8907 35.2715 47.9382 32 47.9382C28.7285 47.9382 25.8243 46.8907 24.0001 45.2715" stroke="#4DBB02" stroke-width="2.5" stroke-linecap="round"/>
<path d="M47.4552 6.67466L16.3996 6.75221C11.7645 6.51344 10.5761 10.0871 10.5761 11.834C10.5761 13.3964 10.3749 15.6741 7.53407 19.9551C4.69324 24.236 4.90671 25.5078 6.50866 28.4714C7.83818 30.9311 11.2199 31.8919 12.9831 32.0535C18.5836 32.181 21.3085 27.338 21.3085 23.9341C24.0868 32.4868 31.9883 32.4868 35.5088 31.5087C39.0363 30.529 42.0579 27.0218 42.771 23.9341C43.1867 27.7714 44.4485 30.0103 48.1768 31.549C52.0387 33.1426 55.3598 30.7068 57.0262 29.1452C58.6926 27.5839 59.7619 24.1175 56.7915 20.3076C54.743 17.6802 53.8891 15.205 53.6088 12.6395C53.4462 11.1531 53.3035 9.55578 52.2592 8.53933C50.7328 7.05389 48.543 6.60317 47.4552 6.67466Z" stroke="#4DBB02" stroke-width="2.5" stroke-linecap="round" stroke-linejoin="round"/>
</svg>
